<svg width="496" height="363" viewBox="0 0 496 363" fill="none" xmlns="http://www.w3.org/2000/svg">
<path d="M488 259C488 270.591 482.432 282.345 470.878 293.8C459.295 305.285 442.126 315.995 420.269 325.162C376.587 343.48 315.685 355 248 355C180.315 355 119.413 343.48 75.7313 325.162C53.8736 315.995 36.705 305.285 25.1216 293.8C13.5679 282.345 8 270.591 8 259C8 247.409 13.5679 235.655 25.1216 224.2C36.705 212.715 53.8736 202.005 75.7313 192.838C119.413 174.52 180.315 163 248 163C315.685 163 376.587 174.52 420.269 192.838C442.126 202.005 459.295 212.715 470.878 224.2C482.432 235.655 488 247.409 488 259Z" fill="white" stroke="black" stroke-width="16"/>
<path d="M472 259C472 268.077 467.18 277.655 456.427 287.298C445.678 296.937 429.673 305.984 409.212 313.745C368.346 329.246 311.351 339 248 339C184.649 339 127.654 329.246 86.7885 313.745C66.3273 305.984 50.3216 296.937 39.5729 287.298C28.8202 277.655 24 268.077 24 259C24 249.923 28.8202 240.345 39.5729 230.702C50.3216 221.063 66.3273 212.016 86.7885 204.255C127.654 188.754 184.649 179 248 179C311.351 179 368.346 188.754 409.212 204.255C429.673 212.016 445.678 221.063 456.427 230.702C467.18 240.345 472 249.923 472 259Z" fill="white" stroke="#564433" stroke-width="16"/>
<path d="M456 259C456 265.439 452.092 272.847 442.074 280.742C432.146 288.567 417.284 295.963 398.205 302.322C360.132 315.013 307.026 323 248 323C188.974 323 135.868 315.013 97.7948 302.322C78.7165 295.963 63.8544 288.567 53.9261 280.742C43.9077 272.847 40 265.439 40 259C40 252.561 43.9077 245.153 53.9261 237.258C63.8544 229.433 78.7165 222.037 97.7948 215.678C135.868 202.987 188.974 195 248 195C307.026 195 360.132 202.987 398.205 215.678C417.284 222.037 432.146 229.433 442.074 237.258C452.092 245.153 456 252.561 456 259Z" fill="#585858" stroke="black" stroke-width="16"/>
<path fill-rule="evenodd" clip-rule="evenodd" d="M393.977 142.047C393.992 141.227 394 140.404 394 139.581C394 62.4923 327.738 0 246 0L246 143.54L246 279.161C246.302 279.161 246.604 279.16 246.906 279.159L247 315H265.5L284 314L303 312.5L311 312L321 311L330.5 309.5L340.317 308L358.879 304.5L376.438 300.5L395 295V149C395 146.582 394.643 144.248 393.977 142.047Z" fill="#C76850"/>
<path fill-rule="evenodd" clip-rule="evenodd" d="M247 123L247 0C164.986 0 99 63.1279 99 141C99 147.287 99.43 153.477 100.264 159.546L105 296.5L122 301L139 305L156.5 308L165.5 309.5L174.5 310.5L183.5 311.5H185.5L187.5 312L192.625 312.625L210.75 314.75L247 315V123Z" fill="#E49466"/>
<path fill-rule="evenodd" clip-rule="evenodd" d="M264 227H231V248H231.007C231.002 248.166 231 248.333 231 248.5C231 257.613 238.387 265 247.5 265C256.613 265 264 257.613 264 248.5C264 248.333 263.998 248.166 263.993 248H264V227Z" fill="white"/>
<circle cx="187" cy="93" r="16" fill="black"/>
<circle cx="308" cy="93" r="16" fill="black"/>
<path fill-rule="evenodd" clip-rule="evenodd" d="M233.127 230.653C225.951 235.316 217.306 238 208 238C183.147 238 163 218.853 163 194C163 169.147 183.147 149 208 149C224.724 149 239.317 158.123 247.074 171.664C254.868 158.561 269.382 150 286 150C310.853 150 331 169.147 331 194C331 218.853 310.853 238 286 238C276.488 238 267.666 235.195 260.398 230.34L257 230L247 228L239 230L233.127 230.653Z" fill="#F8E4C3"/>
<circle cx="247" cy="155" r="32" fill="black"/>
</svg>
