<svg width="124" height="92" viewBox="0 0 124 92" fill="none" xmlns="http://www.w3.org/2000/svg">
<path d="M122 66C122 68.8978 120.608 71.8363 117.72 74.7001C114.824 77.5712 110.532 80.2489 105.067 82.5404C94.1467 87.1199 78.9213 90 62 90C45.0787 90 29.8533 87.1199 18.9328 82.5404C13.4684 80.2489 9.17624 77.5712 6.28041 74.7001C3.39198 71.8363 2 68.8978 2 66C2 63.1022 3.39198 60.1637 6.28041 57.2999C9.17624 54.4288 13.4684 51.7511 18.9328 49.4596C29.8533 44.8801 45.0787 42 62 42C78.9213 42 94.1467 44.8801 105.067 49.4596C110.532 51.7511 114.824 54.4288 117.72 57.2999C120.608 60.1637 122 63.1022 122 66Z" fill="white" stroke="black" stroke-width="4"/>
<path d="M118 66C118 68.2693 116.795 70.6637 114.107 73.0744C111.42 75.4843 107.418 77.7461 102.303 79.6864C92.0864 83.5616 77.8377 86 62 86C46.1623 86 31.9136 83.5616 21.6971 79.6864C16.5818 77.7461 12.5804 75.4843 9.89321 73.0744C7.20506 70.6637 6 68.2693 6 66C6 63.7307 7.20506 61.3363 9.89321 58.9256C12.5804 56.5157 16.5818 54.2539 21.6971 52.3136C31.9136 48.4384 46.1623 46 62 46C77.8377 46 92.0864 48.4384 102.303 52.3136C107.418 54.2539 111.42 56.5157 114.107 58.9256C116.795 61.3363 118 63.7307 118 66Z" fill="white" stroke="#564433" stroke-width="4"/>
<path d="M114 66C114 67.6098 113.023 69.4617 110.518 71.4356C108.036 73.3917 104.321 75.2407 99.5513 76.8306C90.0331 80.0033 76.7565 82 62 82C47.2435 82 33.9669 80.0033 24.4487 76.8306C19.6791 75.2407 15.9636 73.3917 13.4815 71.4356C10.9769 69.4617 10 67.6098 10 66C10 64.3902 10.9769 62.5383 13.4815 60.5644C15.9636 58.6083 19.6791 56.7593 24.4487 55.1694C33.9669 51.9967 47.2435 50 62 50C76.7565 50 90.0331 51.9967 99.5513 55.1694C104.321 56.7593 108.036 58.6083 110.518 60.5644C113.023 62.5383 114 64.3902 114 66Z" fill="#585858" stroke="black" stroke-width="4"/>
</svg>
