<svg width="168" height="125" viewBox="0 0 168 125" fill="none" xmlns="http://www.w3.org/2000/svg">
<path d="M144 65.7669C144 68.7241 142.599 71.7124 139.71 74.6161C136.813 77.5279 132.521 80.242 127.058 82.5643C116.14 87.2058 100.918 90.125 84 90.125C67.0817 90.125 51.8597 87.2058 40.9419 82.5643C35.4792 80.242 31.187 77.5279 28.2901 74.6161C25.4012 71.7124 24 68.7241 24 65.7669C24 62.8097 25.4012 59.8213 28.2901 56.9177C31.187 54.0059 35.4792 51.2918 40.9419 48.9694C51.8597 44.3279 67.0817 41.4088 84 41.4088C100.918 41.4088 116.14 44.3279 127.058 48.9694C132.521 51.2918 136.813 54.0059 139.71 56.9177C142.599 59.8213 144 62.8097 144 65.7669Z" fill="white" stroke="black" stroke-width="4"/>
<path d="M140 65.7669C140 68.0888 138.784 70.5253 136.097 72.9684C133.409 75.412 129.408 77.7044 124.294 79.6707C114.081 83.5983 99.835 86.0699 84 86.0699C68.165 86.0699 53.9194 83.5983 43.7056 79.6707C38.5921 77.7044 34.5911 75.412 31.9033 72.9684C29.216 70.5252 28 68.0888 28 65.7669C28 63.445 29.216 61.0085 31.9033 58.5654C34.5911 56.1217 38.5921 53.8293 43.7056 51.863C53.9194 47.9354 68.165 45.4638 84 45.4638C99.835 45.4638 114.081 47.9354 124.294 51.863C129.408 53.8293 133.409 56.1217 136.097 58.5654C138.784 61.0085 140 63.445 140 65.7669Z" fill="white" stroke="#564433" stroke-width="4"/>
<path d="M136 65.7669C136 67.4227 135.01 69.3086 132.508 71.3073C130.026 73.2903 126.311 75.1642 121.543 76.7754C112.028 79.9909 98.7542 82.0148 84 82.0148C69.2458 82.0148 55.9721 79.9909 46.4565 76.7754C41.6886 75.1642 37.974 73.2903 35.492 71.3073C32.9903 69.3086 32 67.4227 32 65.7669C32 64.111 32.9903 62.2252 35.492 60.2265C37.974 58.2435 41.6886 56.3696 46.4565 54.7584C55.9721 51.5429 69.2458 49.519 84 49.519C98.7542 49.519 112.028 51.5429 121.543 54.7584C126.311 56.3696 130.026 58.2435 132.508 60.2265C135.01 62.2252 136 64.111 136 65.7669Z" fill="#585858" stroke="black" stroke-width="4"/>
<path fill-rule="evenodd" clip-rule="evenodd" d="M120.495 36.0704C120.498 35.8809 120.5 35.691 120.5 35.5008C120.5 15.9633 103.935 0.125 83.5 0.125L83.5 36.5043L83.5 70.8766C83.5755 70.8766 83.651 70.8764 83.7265 70.8759L83.75 79.9597H88.375L93 79.7063L97.75 79.3261L99.75 79.1994L102.25 78.9459L104.625 78.5658L107.079 78.1856L111.72 77.2986L116.109 76.2848L120.75 74.8908V37.8054C120.75 37.2022 120.661 36.6197 120.495 36.0704Z" fill="#C76850"/>
<path fill-rule="evenodd" clip-rule="evenodd" d="M47.066 40.5611C46.8575 39.0229 46.75 37.4539 46.75 35.8605C46.75 16.1243 63.2464 0.125 83.75 0.125L83.75 31.2986H83.75V79.9597L74.6875 79.8964L70.1562 79.3578L68.875 79.1994L68.375 79.0727H67.875L65.625 78.8192L63.375 78.5658L61.125 78.1856L56.75 77.4253L52.5 76.4115L48.25 75.271L47.066 40.5611Z" fill="#E49466"/>
<path fill-rule="evenodd" clip-rule="evenodd" d="M88 57.6567H79.75V62.979H79.7519C79.7506 63.0211 79.75 63.0633 79.75 63.1057C79.75 65.4153 81.5968 67.2875 83.875 67.2875C86.1532 67.2875 88 65.4153 88 63.1057C88 63.0633 87.9994 63.0211 87.9981 62.979H88V57.6567Z" fill="white"/>
<ellipse cx="68.75" cy="23.6953" rx="4" ry="4.0551" fill="black"/>
<ellipse cx="99" cy="23.6953" rx="4" ry="4.0551" fill="black"/>
<path fill-rule="evenodd" clip-rule="evenodd" d="M80.2817 58.5824C78.4878 59.7642 76.3264 60.4445 74 60.4445C67.7868 60.4445 62.75 55.5918 62.75 49.293C62.75 42.9942 67.7868 37.8881 74 37.8881C78.181 37.8881 81.8292 40.2002 83.7685 43.6321C85.717 40.3112 89.3455 38.1415 93.5 38.1415C99.7132 38.1415 104.75 42.9943 104.75 49.2931C104.75 55.5918 99.7132 60.4446 93.5 60.4446C91.1221 60.4446 88.9165 59.7338 87.0996 58.5032L86.25 58.417L83.75 57.9101L81.75 58.417L80.2817 58.5824Z" fill="#F8E4C3"/>
<ellipse cx="83.75" cy="39.4087" rx="8" ry="8.11019" fill="black"/>
<path d="M19.008 100.736L18.984 100.76C19.08 100.408 19.264 100.152 19.536 99.992C19.824 99.832 20.2 99.792 20.664 99.872C21.128 99.952 21.456 100.096 21.648 100.304C21.856 100.512 21.904 100.8 21.792 101.168L17.472 118.376V118.352C17.392 118.624 17.208 118.832 16.92 118.976C16.648 119.12 16.36 119.192 16.056 119.192C15.704 119.192 15.368 119.136 15.048 119.024C14.744 118.928 14.552 118.72 14.472 118.4L14.496 118.424L11.544 106.712H10.896L7.968 118.4C7.888 118.672 7.688 118.872 7.368 119C7.048 119.128 6.72 119.192 6.384 119.192C5.968 119.192 5.632 119.128 5.376 119C5.136 118.888 4.976 118.68 4.896 118.376L4.92 118.4L0.6 101.168C0.52 100.848 0.592 100.576 0.816 100.352C1.04 100.112 1.36 99.952 1.776 99.872C2.672 99.728 3.216 100.024 3.408 100.76L3.384 100.736L4.464 105.08C4.608 105.656 4.752 106.248 4.896 106.856C5.04 107.448 5.2 108.088 5.376 108.776C5.552 109.448 5.744 110.184 5.952 110.984C6.16 111.784 6.392 112.68 6.648 113.672L9.72 100.712C9.8 100.36 9.984 100.128 10.272 100.016C10.56 99.904 10.88 99.848 11.232 99.848C11.552 99.848 11.864 99.912 12.168 100.04C12.472 100.152 12.664 100.392 12.744 100.76L15.912 113.6L19.008 100.736ZM26.3987 117.992C26.3987 118.76 25.9587 119.144 25.0787 119.144C24.1987 119.144 23.7587 118.76 23.7587 117.992V100.952C23.7587 100.184 24.1987 99.8 25.0787 99.8C25.9587 99.8 26.3987 100.184 26.3987 100.952V104.552H31.4627C32.2787 104.552 33.1267 104.856 34.0067 105.464C34.8707 106.072 35.3027 107.032 35.3027 108.344V117.992C35.3027 118.76 34.8627 119.144 33.9827 119.144C33.1027 119.144 32.6627 118.76 32.6627 117.992V108.56C32.6627 108.144 32.5347 107.744 32.2787 107.36L32.3027 107.384C32.0947 107 31.6707 106.808 31.0307 106.808H26.3987V117.992ZM42.1014 119C41.6054 119 41.1334 118.936 40.6854 118.808C40.2374 118.664 39.8054 118.464 39.3894 118.208V118.232C38.6054 117.736 38.2134 116.824 38.2134 115.496V114.32C38.2134 113.664 38.3254 113.096 38.5494 112.616C38.7894 112.12 39.1174 111.728 39.5334 111.44H39.5094C39.9094 111.168 40.3334 110.968 40.7814 110.84C41.2294 110.696 41.6614 110.624 42.0774 110.624H47.3814V108.392C47.3814 107.992 47.2534 107.632 46.9974 107.312C46.7574 106.976 46.3414 106.808 45.7494 106.808H42.9414C42.3334 106.808 41.9094 106.96 41.6694 107.264C41.4454 107.552 41.3334 107.896 41.3334 108.296V108.488C41.3334 109.32 40.8854 109.736 39.9894 109.736C39.0934 109.736 38.6454 109.32 38.6454 108.488V108.272C38.6454 107.616 38.7574 107.064 38.9814 106.616C39.2214 106.168 39.5414 105.792 39.9414 105.488H39.9174C40.3334 105.216 40.7654 104.992 41.2134 104.816C41.6774 104.64 42.1174 104.552 42.5334 104.552H46.1814C46.5814 104.552 47.0054 104.64 47.4534 104.816C47.9174 104.992 48.3494 105.216 48.7494 105.488H48.7254C49.1414 105.792 49.4614 106.192 49.6854 106.688C49.9094 107.168 50.0214 107.728 50.0214 108.368V117.992C50.0214 118.76 49.5814 119.144 48.7014 119.144C48.5254 119.144 48.3574 119.136 48.1974 119.12C48.0534 119.104 47.9174 119.064 47.7894 119C47.6774 118.92 47.5814 118.816 47.5014 118.688C47.4374 118.544 47.4054 118.36 47.4054 118.136L47.3814 112.88H42.5334C42.1814 112.88 41.9094 112.92 41.7174 113C41.5254 113.08 41.3734 113.208 41.2614 113.384C41.1334 113.656 41.0374 113.872 40.9734 114.032C40.9254 114.176 40.9014 114.344 40.9014 114.536V115.472C40.9014 115.888 41.0214 116.208 41.2614 116.432C41.5174 116.64 41.9494 116.744 42.5574 116.744H45.2454C45.8374 116.744 46.1334 117.12 46.1334 117.872C46.1334 118.192 46.0614 118.464 45.9174 118.688C45.7734 118.896 45.5494 119 45.2454 119H42.1014ZM64.6699 115.184C64.6699 116.496 64.2379 117.464 63.3739 118.088C62.5259 118.696 61.6779 119 60.8299 119H56.7979C55.9499 119 55.1259 118.696 54.3259 118.088C53.9419 117.768 53.6459 117.368 53.4379 116.888C53.2299 116.392 53.1259 115.824 53.1259 115.184V108.344C53.1259 107.048 53.5259 106.088 54.3259 105.464C54.7259 105.176 55.1339 104.952 55.5499 104.792C55.9819 104.616 56.3979 104.528 56.7979 104.528H60.8299C61.2139 104.528 61.6379 104.608 62.1019 104.768C62.5659 104.912 62.9979 105.112 63.3979 105.368C63.7819 105.64 64.0859 106.016 64.3099 106.496C64.5499 106.976 64.6699 107.544 64.6699 108.2V109.4C64.6699 110.168 64.2299 110.552 63.3499 110.552C62.4699 110.552 62.0299 110.168 62.0299 109.4V108.368C62.0299 107.968 61.9019 107.608 61.6459 107.288C61.4059 106.952 60.9899 106.784 60.3979 106.784H57.3979C56.8059 106.784 56.3819 106.952 56.1259 107.288C55.8859 107.608 55.7659 107.968 55.7659 108.368V115.16C55.7659 115.544 55.8859 115.904 56.1259 116.24C56.3819 116.576 56.8059 116.744 57.3979 116.744H60.3979C60.9899 116.744 61.4059 116.576 61.6459 116.24C61.9019 115.904 62.0299 115.544 62.0299 115.16V114.056C62.0299 113.304 62.4699 112.928 63.3499 112.928C64.2299 112.928 64.6699 113.304 64.6699 114.056V115.184ZM70.3206 114.992V118.04C70.3206 118.792 69.8806 119.168 69.0006 119.168C68.1206 119.168 67.6806 118.792 67.6806 118.04V100.952C67.6806 100.184 68.1206 99.8 69.0006 99.8C69.8806 99.8 70.3206 100.184 70.3206 100.952V111.128C70.7206 110.648 71.1606 110.136 71.6406 109.592C72.1366 109.032 72.6246 108.472 73.1046 107.912C73.6006 107.336 74.0886 106.776 74.5686 106.232C75.0486 105.672 75.4966 105.152 75.9126 104.672V104.696C76.2006 104.36 76.4886 104.192 76.7766 104.192C76.9366 104.192 77.0886 104.232 77.2326 104.312C77.3926 104.376 77.5606 104.472 77.7366 104.6H77.7126C78.0966 104.92 78.2886 105.24 78.2886 105.56C78.2886 105.672 78.2646 105.8 78.2166 105.944C78.1686 106.072 78.0886 106.184 77.9766 106.28L70.3206 114.992ZM78.3366 117.392C78.4486 117.6 78.5046 117.816 78.5046 118.04C78.5046 118.456 78.2646 118.768 77.7846 118.976C77.4646 119.168 77.1766 119.264 76.9206 119.264C76.7446 119.264 76.5766 119.2 76.4166 119.072C76.2566 118.96 76.1286 118.816 76.0326 118.64L73.6326 114.008C73.4886 113.768 73.4166 113.528 73.4166 113.288C73.4166 112.888 73.6246 112.552 74.0406 112.28C74.1526 112.2 74.2646 112.128 74.3766 112.064C74.5046 112 74.6406 111.952 74.7846 111.92C74.9606 111.888 75.1286 111.92 75.2886 112.016C75.4486 112.112 75.5846 112.24 75.6966 112.4L78.3366 117.392ZM80.3814 110.72C79.6454 110.72 79.2774 110.32 79.2774 109.52C79.2934 109.104 79.3974 108.8 79.5894 108.608C79.7814 108.4 80.0454 108.296 80.3814 108.296H85.2294C85.9494 108.296 86.3094 108.704 86.3094 109.52C86.3414 110.32 85.9814 110.72 85.2294 110.72H80.3814ZM95.0211 102.296L89.7651 118.424V118.4C89.6691 118.64 89.5331 118.84 89.3571 119C89.1971 119.144 88.9971 119.216 88.7571 119.216C88.6291 119.216 88.5011 119.2 88.3731 119.168C88.2611 119.152 88.1411 119.128 88.0131 119.096H88.0371C87.1251 118.808 86.7891 118.296 87.0291 117.56L92.5011 100.928C92.5811 100.672 92.7171 100.456 92.9091 100.28C93.1171 100.104 93.3571 100 93.6291 99.968C93.9011 99.92 94.1651 99.888 94.4211 99.872C94.6771 99.84 94.8771 99.824 95.0211 99.824C95.1651 99.824 95.3651 99.84 95.6211 99.872C95.8771 99.888 96.1411 99.912 96.4131 99.944C96.6371 99.976 96.8531 100.096 97.0611 100.304C97.2851 100.512 97.4531 100.72 97.5651 100.928C98.4611 103.68 99.3651 106.456 100.277 109.256C101.205 112.04 102.117 114.808 103.013 117.56C103.237 118.296 102.901 118.808 102.005 119.096C101.877 119.128 101.757 119.152 101.645 119.168C101.549 119.2 101.437 119.216 101.309 119.216C101.085 119.216 100.877 119.144 100.685 119C100.509 118.84 100.381 118.64 100.301 118.4V118.424L95.0211 102.296ZM96.8211 113.24C96.8211 113.752 96.6371 114.192 96.2691 114.56C95.9171 114.912 95.4851 115.088 94.9731 115.088C94.4611 115.088 94.0291 114.912 93.6771 114.56C93.3251 114.192 93.1491 113.752 93.1491 113.24C93.1491 112.728 93.3251 112.296 93.6771 111.944C94.0291 111.576 94.4611 111.392 94.9731 111.392C95.4851 111.392 95.9171 111.576 96.2691 111.944C96.6371 112.296 96.8211 112.728 96.8211 113.24ZM104.85 110.72C104.114 110.72 103.746 110.32 103.746 109.52C103.762 109.104 103.866 108.8 104.058 108.608C104.25 108.4 104.514 108.296 104.85 108.296H109.698C110.418 108.296 110.778 108.704 110.778 109.52C110.81 110.32 110.45 110.72 109.698 110.72H104.85ZM127.89 99.824C128.402 99.824 128.962 99.944 129.57 100.184C130.13 100.408 130.41 100.832 130.41 101.456V117.992C130.41 118.76 129.938 119.144 128.994 119.144C128.05 119.144 127.578 118.76 127.578 117.992V105.656L126.882 105.584L125.922 108.704L123.042 118.304C122.866 118.864 122.434 119.136 121.746 119.12C121.442 119.104 121.178 119.024 120.954 118.88C120.73 118.736 120.578 118.528 120.498 118.256L118.77 112.664C118.418 111.56 118.066 110.44 117.714 109.304C117.362 108.152 116.978 106.88 116.562 105.488L115.866 105.584V117.992C115.866 118.76 115.394 119.144 114.45 119.144C113.506 119.144 113.034 118.76 113.034 117.992V101.456C113.034 100.848 113.314 100.424 113.874 100.184C114.466 99.944 115.034 99.832 115.578 99.848C115.818 99.848 116.066 99.88 116.322 99.944C116.578 100.008 116.818 100.104 117.042 100.232C117.266 100.344 117.466 100.496 117.642 100.688C117.818 100.864 117.954 101.072 118.05 101.312L121.818 114.152C122.09 113.208 122.378 112.184 122.682 111.08C122.986 109.976 123.298 108.856 123.618 107.72C123.938 106.584 124.25 105.464 124.554 104.36C124.874 103.24 125.17 102.2 125.442 101.24C125.538 101.016 125.674 100.816 125.85 100.64C126.026 100.464 126.226 100.32 126.45 100.208C126.674 100.08 126.906 99.984 127.146 99.92C127.402 99.856 127.65 99.824 127.89 99.824ZM141.267 104.552C141.683 104.552 142.107 104.64 142.539 104.816C142.987 104.992 143.419 105.216 143.835 105.488H143.811C144.227 105.792 144.547 106.192 144.771 106.688C144.995 107.168 145.107 107.728 145.107 108.368V115.184C145.107 116.496 144.675 117.464 143.811 118.088C142.963 118.696 142.115 119 141.267 119H137.427C137.011 119 136.587 118.928 136.155 118.784C135.723 118.64 135.299 118.408 134.883 118.088C134.019 117.48 133.587 116.512 133.587 115.184V108.368C133.587 107.728 133.699 107.168 133.923 106.688C134.147 106.192 134.467 105.792 134.883 105.488H134.859C135.259 105.216 135.683 104.992 136.131 104.816C136.579 104.64 137.011 104.552 137.427 104.552H141.267ZM140.835 116.744C141.427 116.744 141.843 116.576 142.083 116.24C142.339 115.904 142.467 115.544 142.467 115.16V108.392C142.467 107.992 142.339 107.632 142.083 107.312C141.843 106.976 141.427 106.808 140.835 106.808H137.859C137.267 106.808 136.843 106.976 136.587 107.312C136.347 107.632 136.227 107.992 136.227 108.392V115.16C136.227 115.544 136.347 115.904 136.587 116.24C136.843 116.576 137.267 116.744 137.859 116.744H140.835ZM150.878 118.064C150.878 118.816 150.438 119.192 149.558 119.192C148.662 119.192 148.214 118.816 148.214 118.064V100.856C148.214 100.104 148.662 99.728 149.558 99.728C150.438 99.728 150.878 100.104 150.878 100.856V118.064ZM156.828 115.16C156.828 115.544 156.948 115.904 157.188 116.24C157.444 116.576 157.868 116.744 158.46 116.744H161.46C162.052 116.744 162.468 116.6 162.708 116.312C162.964 116.008 163.092 115.664 163.092 115.28V115.016C163.092 114.264 163.532 113.888 164.412 113.888C165.292 113.888 165.732 114.264 165.732 115.016V115.304C165.732 115.976 165.62 116.528 165.396 116.96C165.188 117.392 164.868 117.768 164.436 118.088C163.588 118.696 162.74 119 161.892 119H157.86C157.012 119 156.188 118.696 155.388 118.088C155.004 117.768 154.708 117.368 154.5 116.888C154.292 116.392 154.188 115.824 154.188 115.184V108.344C154.188 107.048 154.588 106.088 155.388 105.464C155.788 105.176 156.196 104.952 156.612 104.792C157.044 104.616 157.46 104.528 157.86 104.528H161.892C162.276 104.528 162.7 104.608 163.164 104.768C163.628 104.912 164.06 105.112 164.46 105.368C164.844 105.64 165.148 106.016 165.372 106.496C165.612 106.976 165.732 107.544 165.732 108.2V111.44C165.732 111.808 165.62 112.136 165.396 112.424C165.188 112.712 164.796 112.856 164.22 112.856H159.036C158.46 112.856 158.156 112.48 158.124 111.728C158.124 110.976 158.428 110.6 159.036 110.6H163.116L163.092 108.368C163.092 107.968 162.964 107.608 162.708 107.288C162.468 106.952 162.052 106.784 161.46 106.784H158.46C157.868 106.784 157.444 106.952 157.188 107.288C156.948 107.608 156.828 107.968 156.828 108.368V115.16Z" fill="black"/>
</svg>
