<svg width="124" height="93" viewBox="0 0 124 93" fill="none" xmlns="http://www.w3.org/2000/svg">
<path d="M122 65.7669C122 68.7241 120.599 71.7124 117.71 74.6161C114.813 77.5279 110.521 80.242 105.058 82.5643C94.1403 87.2058 78.9183 90.125 62 90.125C45.0817 90.125 29.8597 87.2058 18.9419 82.5643C13.4792 80.242 9.18705 77.5279 6.29009 74.6161C3.40124 71.7124 2 68.7241 2 65.7669C2 62.8097 3.40124 59.8213 6.29009 56.9177C9.18705 54.0059 13.4792 51.2918 18.9419 48.9694C29.8597 44.3279 45.0817 41.4088 62 41.4088C78.9183 41.4088 94.1403 44.3279 105.058 48.9694C110.521 51.2918 114.813 54.0059 117.71 56.9177C120.599 59.8213 122 62.8097 122 65.7669Z" fill="white" stroke="black" stroke-width="4"/>
<path d="M118 65.7669C118 68.0888 116.784 70.5252 114.097 72.9684C111.409 75.412 107.408 77.7044 102.294 79.6707C92.0806 83.5983 77.835 86.0699 62 86.0699C46.165 86.0699 31.9194 83.5983 21.7056 79.6707C16.5921 77.7044 12.5911 75.412 9.90332 72.9684C7.21604 70.5252 6 68.0888 6 65.7669C6 63.445 7.21604 61.0085 9.90332 58.5654C12.5911 56.1217 16.5921 53.8293 21.7056 51.863C31.9194 47.9354 46.165 45.4638 62 45.4638C77.835 45.4638 92.0806 47.9354 102.294 51.863C107.408 53.8293 111.409 56.1217 114.097 58.5654C116.784 61.0085 118 63.445 118 65.7669Z" fill="white" stroke="#564433" stroke-width="4"/>
<path d="M114 65.7669C114 67.4227 113.01 69.3086 110.508 71.3073C108.026 73.2903 104.311 75.1642 99.5435 76.7754C90.0279 79.9909 76.7542 82.0148 62 82.0148C47.2458 82.0148 33.9721 79.9909 24.4565 76.7754C19.6886 75.1642 15.974 73.2903 13.492 71.3073C10.9903 69.3086 10 67.4227 10 65.7669C10 64.111 10.9903 62.2252 13.492 60.2265C15.974 58.2435 19.6886 56.3696 24.4565 54.7584C33.9721 51.5429 47.2458 49.519 62 49.519C76.7542 49.519 90.0279 51.5429 99.5435 54.7584C104.311 56.3696 108.026 58.2435 110.508 60.2265C113.01 62.2252 114 64.111 114 65.7669Z" fill="#585858" stroke="black" stroke-width="4"/>
<path fill-rule="evenodd" clip-rule="evenodd" d="M98.4953 36.0704C98.4984 35.8809 98.5 35.691 98.5 35.5008C98.5 15.9633 81.9345 0.125 61.5 0.125L61.5 36.5043L61.5 70.8766C61.5755 70.8766 61.651 70.8764 61.7265 70.8759L61.75 79.9597H66.375L71 79.7063L75.75 79.3261L77.75 79.1994L80.25 78.9459L82.625 78.5658L85.0791 78.1856L89.7197 77.2986L94.1094 76.2848L98.75 74.8908V37.8054C98.75 37.2022 98.6609 36.6197 98.4953 36.0704Z" fill="#C76850"/>
<path fill-rule="evenodd" clip-rule="evenodd" d="M25.066 40.5611C24.8575 39.0229 24.75 37.4539 24.75 35.8605C24.75 16.1243 41.2464 0.125 61.75 0.125L61.75 31.2986H61.75V79.9597L52.6875 79.8964L48.1562 79.3578L46.875 79.1994L46.375 79.0727H45.875L43.625 78.8192L41.375 78.5658L39.125 78.1856L34.75 77.4253L30.5 76.4115L26.25 75.271L25.066 40.5611Z" fill="#E49466"/>
<path fill-rule="evenodd" clip-rule="evenodd" d="M66 57.6567H57.75V62.979H57.7519C57.7506 63.0211 57.75 63.0633 57.75 63.1057C57.75 65.4153 59.5968 67.2875 61.875 67.2875C64.1532 67.2875 66 65.4153 66 63.1057C66 63.0633 65.9994 63.0211 65.9981 62.979H66V57.6567Z" fill="white"/>
<ellipse cx="46.75" cy="23.6953" rx="4" ry="4.0551" fill="black"/>
<ellipse cx="77" cy="23.6953" rx="4" ry="4.0551" fill="black"/>
<path fill-rule="evenodd" clip-rule="evenodd" d="M58.2817 58.5824C56.4878 59.7642 54.3264 60.4445 52 60.4445C45.7868 60.4445 40.75 55.5918 40.75 49.293C40.75 42.9942 45.7868 37.8881 52 37.8881C56.181 37.8881 59.8292 40.2002 61.7685 43.6321C63.717 40.3112 67.3455 38.1415 71.5 38.1415C77.7132 38.1415 82.75 42.9943 82.75 49.2931C82.75 55.5918 77.7132 60.4446 71.5 60.4446C69.1221 60.4446 66.9165 59.7338 65.0996 58.5032L64.25 58.417L61.75 57.9101L59.75 58.417L58.2817 58.5824Z" fill="#F8E4C3"/>
<ellipse cx="61.75" cy="39.4087" rx="8" ry="8.11019" fill="black"/>
</svg>
